<svg width="205" height="28" viewBox="0 0 205 28" fill="none" xmlns="http://www.w3.org/2000/svg">
<path d="M4.13672 7.6543H1.85742V6.73438H4.13672C4.57812 6.73438 4.93555 6.66406 5.20898 6.52344C5.48242 6.38281 5.68164 6.1875 5.80664 5.9375C5.93555 5.6875 6 5.40234 6 5.08203C6 4.78906 5.93555 4.51367 5.80664 4.25586C5.68164 3.99805 5.48242 3.79102 5.20898 3.63477C4.93555 3.47461 4.57812 3.39453 4.13672 3.39453H2.12109V11H0.990234V2.46875H4.13672C4.78125 2.46875 5.32617 2.58008 5.77148 2.80273C6.2168 3.02539 6.55469 3.33398 6.78516 3.72852C7.01562 4.11914 7.13086 4.56641 7.13086 5.07031C7.13086 5.61719 7.01562 6.08398 6.78516 6.4707C6.55469 6.85742 6.2168 7.15234 5.77148 7.35547C5.32617 7.55469 4.78125 7.6543 4.13672 7.6543ZM8.02734 7.90039V7.76562C8.02734 7.30859 8.09375 6.88477 8.22656 6.49414C8.35938 6.09961 8.55078 5.75781 8.80078 5.46875C9.05078 5.17578 9.35352 4.94922 9.70898 4.78906C10.0645 4.625 10.4629 4.54297 10.9043 4.54297C11.3496 4.54297 11.75 4.625 12.1055 4.78906C12.4648 4.94922 12.7695 5.17578 13.0195 5.46875C13.2734 5.75781 13.4668 6.09961 13.5996 6.49414C13.7324 6.88477 13.7988 7.30859 13.7988 7.76562V7.90039C13.7988 8.35742 13.7324 8.78125 13.5996 9.17188C13.4668 9.5625 13.2734 9.9043 13.0195 10.1973C12.7695 10.4863 12.4668 10.7129 12.1113 10.877C11.7598 11.0371 11.3613 11.1172 10.916 11.1172C10.4707 11.1172 10.0703 11.0371 9.71484 10.877C9.35938 10.7129 9.05469 10.4863 8.80078 10.1973C8.55078 9.9043 8.35938 9.5625 8.22656 9.17188C8.09375 8.78125 8.02734 8.35742 8.02734 7.90039ZM9.11133 7.76562V7.90039C9.11133 8.2168 9.14844 8.51562 9.22266 8.79688C9.29688 9.07422 9.4082 9.32031 9.55664 9.53516C9.70898 9.75 9.89844 9.91992 10.125 10.0449C10.3516 10.166 10.6152 10.2266 10.916 10.2266C11.2129 10.2266 11.4727 10.166 11.6953 10.0449C11.9219 9.91992 12.1094 9.75 12.2578 9.53516C12.4062 9.32031 12.5176 9.07422 12.5918 8.79688C12.6699 8.51562 12.709 8.2168 12.709 7.90039V7.76562C12.709 7.45312 12.6699 7.1582 12.5918 6.88086C12.5176 6.59961 12.4043 6.35156 12.252 6.13672C12.1035 5.91797 11.916 5.74609 11.6895 5.62109C11.4668 5.49609 11.2051 5.43359 10.9043 5.43359C10.6074 5.43359 10.3457 5.49609 10.1191 5.62109C9.89648 5.74609 9.70898 5.91797 9.55664 6.13672C9.4082 6.35156 9.29688 6.59961 9.22266 6.88086C9.14844 7.1582 9.11133 7.45312 9.11133 7.76562ZM16.2422 5.65625V11H15.1582V4.66016H16.2129L16.2422 5.65625ZM18.2227 4.625L18.2168 5.63281C18.127 5.61328 18.041 5.60156 17.959 5.59766C17.8809 5.58984 17.791 5.58594 17.6895 5.58594C17.4395 5.58594 17.2188 5.625 17.0273 5.70312C16.8359 5.78125 16.6738 5.89062 16.541 6.03125C16.4082 6.17188 16.3027 6.33984 16.2246 6.53516C16.1504 6.72656 16.1016 6.9375 16.0781 7.16797L15.7734 7.34375C15.7734 6.96094 15.8105 6.60156 15.8848 6.26562C15.9629 5.92969 16.082 5.63281 16.2422 5.375C16.4023 5.11328 16.6055 4.91016 16.8516 4.76562C17.1016 4.61719 17.3984 4.54297 17.7422 4.54297C17.8203 4.54297 17.9102 4.55273 18.0117 4.57227C18.1133 4.58789 18.1836 4.60547 18.2227 4.625ZM26.1914 13.4375V5.87891L26.2852 4.66016H27.2812V13.4375H26.1914ZM21.9316 7.90039V7.77734C21.9316 7.29297 21.9883 6.85352 22.1016 6.45898C22.2148 6.06055 22.3809 5.71875 22.5996 5.43359C22.8184 5.14844 23.082 4.92969 23.3906 4.77734C23.7031 4.62109 24.0586 4.54297 24.457 4.54297C24.8555 4.54297 25.2051 4.61328 25.5059 4.75391C25.8105 4.89062 26.0684 5.0918 26.2793 5.35742C26.4941 5.61914 26.6641 5.93555 26.7891 6.30664C26.9141 6.67773 27 7.09766 27.0469 7.56641V8.10547C27.0039 8.57031 26.9199 8.98828 26.7949 9.35938C26.6699 9.73047 26.5 10.0469 26.2852 10.3086C26.0742 10.5703 25.8145 10.7715 25.5059 10.9121C25.2012 11.0488 24.8477 11.1172 24.4453 11.1172C24.0547 11.1172 23.7031 11.0371 23.3906 10.877C23.082 10.7168 22.8184 10.4922 22.5996 10.2031C22.3848 9.91406 22.2188 9.57422 22.1016 9.18359C21.9883 8.78906 21.9316 8.36133 21.9316 7.90039ZM23.0215 7.77734V7.90039C23.0215 8.2168 23.0547 8.51562 23.1211 8.79688C23.1875 9.07422 23.2891 9.32031 23.4258 9.53516C23.5664 9.75 23.7422 9.91992 23.9531 10.0449C24.168 10.166 24.4219 10.2266 24.7148 10.2266C25.0742 10.2266 25.373 10.1484 25.6113 9.99219C25.8535 9.83594 26.0469 9.63086 26.1914 9.37695C26.3359 9.11914 26.4473 8.84375 26.5254 8.55078V7.13867C26.4824 6.92383 26.4141 6.71484 26.3203 6.51172C26.2305 6.30859 26.1133 6.12695 25.9688 5.9668C25.8242 5.80273 25.6484 5.67383 25.4414 5.58008C25.2383 5.48242 25 5.43359 24.7266 5.43359C24.4297 5.43359 24.1738 5.49609 23.959 5.62109C23.7441 5.74609 23.5664 5.91797 23.4258 6.13672C23.2891 6.35156 23.1875 6.59961 23.1211 6.88086C23.0547 7.16211 23.0215 7.46094 23.0215 7.77734ZM32.9004 9.53516V4.66016H33.9902V11H32.9531L32.9004 9.53516ZM33.1055 8.19922L33.5566 8.1875C33.5566 8.60938 33.5117 9 33.4219 9.35938C33.3359 9.71484 33.1953 10.0234 33 10.2852C32.8047 10.5469 32.5488 10.752 32.2324 10.9004C31.916 11.0449 31.5312 11.1172 31.0781 11.1172C30.7695 11.1172 30.4863 11.0723 30.2285 10.9824C29.9746 10.8926 29.7559 10.7539 29.5723 10.5664C29.3887 10.3789 29.2461 10.1348 29.1445 9.83398C29.0469 9.5332 28.998 9.17188 28.998 8.75V4.66016H30.082V8.76172C30.082 9.04688 30.1133 9.2832 30.1758 9.4707C30.2422 9.6543 30.3301 9.80078 30.4395 9.91016C30.5527 10.0156 30.6777 10.0898 30.8145 10.1328C30.9551 10.1758 31.0996 10.1973 31.248 10.1973C31.709 10.1973 32.0742 10.1094 32.3438 9.93359C32.6133 9.75391 32.8066 9.51367 32.9238 9.21289C33.0449 8.9082 33.1055 8.57031 33.1055 8.19922ZM38.2734 11.1172C37.832 11.1172 37.4316 11.043 37.0723 10.8945C36.7168 10.7422 36.4102 10.5293 36.1523 10.2559C35.8984 9.98242 35.7031 9.6582 35.5664 9.2832C35.4297 8.9082 35.3613 8.49805 35.3613 8.05273V7.80664C35.3613 7.29102 35.4375 6.83203 35.5898 6.42969C35.7422 6.02344 35.9492 5.67969 36.2109 5.39844C36.4727 5.11719 36.7695 4.9043 37.1016 4.75977C37.4336 4.61523 37.7773 4.54297 38.1328 4.54297C38.5859 4.54297 38.9766 4.62109 39.3047 4.77734C39.6367 4.93359 39.9082 5.15234 40.1191 5.43359C40.3301 5.71094 40.4863 6.03906 40.5879 6.41797C40.6895 6.79297 40.7402 7.20312 40.7402 7.64844V8.13477H36.0059V7.25H39.6562V7.16797C39.6406 6.88672 39.582 6.61328 39.4805 6.34766C39.3828 6.08203 39.2266 5.86328 39.0117 5.69141C38.7969 5.51953 38.5039 5.43359 38.1328 5.43359C37.8867 5.43359 37.6602 5.48633 37.4531 5.5918C37.2461 5.69336 37.0684 5.8457 36.9199 6.04883C36.7715 6.25195 36.6562 6.5 36.5742 6.79297C36.4922 7.08594 36.4512 7.42383 36.4512 7.80664V8.05273C36.4512 8.35352 36.4922 8.63672 36.5742 8.90234C36.6602 9.16406 36.7832 9.39453 36.9434 9.59375C37.1074 9.79297 37.3047 9.94922 37.5352 10.0625C37.7695 10.1758 38.0352 10.2324 38.332 10.2324C38.7148 10.2324 39.0391 10.1543 39.3047 9.99805C39.5703 9.8418 39.8027 9.63281 40.002 9.37109L40.6582 9.89258C40.5215 10.0996 40.3477 10.2969 40.1367 10.4844C39.9258 10.6719 39.666 10.8242 39.3574 10.9414C39.0527 11.0586 38.6914 11.1172 38.2734 11.1172ZM45.6973 9.31836C45.6973 9.16211 45.6621 9.01758 45.5918 8.88477C45.5254 8.74805 45.3867 8.625 45.1758 8.51562C44.9688 8.40234 44.6562 8.30469 44.2383 8.22266C43.8867 8.14844 43.5684 8.06055 43.2832 7.95898C43.002 7.85742 42.7617 7.73438 42.5625 7.58984C42.3672 7.44531 42.2168 7.27539 42.1113 7.08008C42.0059 6.88477 41.9531 6.65625 41.9531 6.39453C41.9531 6.14453 42.0078 5.9082 42.1172 5.68555C42.2305 5.46289 42.3887 5.26562 42.5918 5.09375C42.7988 4.92188 43.0469 4.78711 43.3359 4.68945C43.625 4.5918 43.9473 4.54297 44.3027 4.54297C44.8105 4.54297 45.2441 4.63281 45.6035 4.8125C45.9629 4.99219 46.2383 5.23242 46.4297 5.5332C46.6211 5.83008 46.7168 6.16016 46.7168 6.52344H45.6328C45.6328 6.34766 45.5801 6.17773 45.4746 6.01367C45.373 5.8457 45.2227 5.70703 45.0234 5.59766C44.8281 5.48828 44.5879 5.43359 44.3027 5.43359C44.002 5.43359 43.7578 5.48047 43.5703 5.57422C43.3867 5.66406 43.252 5.7793 43.166 5.91992C43.084 6.06055 43.043 6.20898 43.043 6.36523C43.043 6.48242 43.0625 6.58789 43.1016 6.68164C43.1445 6.77148 43.2188 6.85547 43.3242 6.93359C43.4297 7.00781 43.5781 7.07812 43.7695 7.14453C43.9609 7.21094 44.2051 7.27734 44.502 7.34375C45.0215 7.46094 45.4492 7.60156 45.7852 7.76562C46.1211 7.92969 46.3711 8.13086 46.5352 8.36914C46.6992 8.60742 46.7812 8.89648 46.7812 9.23633C46.7812 9.51367 46.7227 9.76758 46.6055 9.99805C46.4922 10.2285 46.3262 10.4277 46.1074 10.5957C45.8926 10.7598 45.6348 10.8887 45.334 10.9824C45.0371 11.0723 44.7031 11.1172 44.332 11.1172C43.7734 11.1172 43.3008 11.0176 42.9141 10.8184C42.5273 10.6191 42.2344 10.3613 42.0352 10.0449C41.8359 9.72852 41.7363 9.39453 41.7363 9.04297H42.8262C42.8418 9.33984 42.9277 9.57617 43.084 9.75195C43.2402 9.92383 43.4316 10.0469 43.6582 10.1211C43.8848 10.1914 44.1094 10.2266 44.332 10.2266C44.6289 10.2266 44.877 10.1875 45.0762 10.1094C45.2793 10.0312 45.4336 9.92383 45.5391 9.78711C45.6445 9.65039 45.6973 9.49414 45.6973 9.31836ZM50.8594 4.66016V5.49219H47.4316V4.66016H50.8594ZM48.5918 3.11914H49.6758V9.42969C49.6758 9.64453 49.709 9.80664 49.7754 9.91602C49.8418 10.0254 49.9277 10.0977 50.0332 10.1328C50.1387 10.168 50.252 10.1855 50.373 10.1855C50.4629 10.1855 50.5566 10.1777 50.6543 10.1621C50.7559 10.1426 50.832 10.127 50.8828 10.1152L50.8887 11C50.8027 11.0273 50.6895 11.0527 50.5488 11.0762C50.4121 11.1035 50.2461 11.1172 50.0508 11.1172C49.7852 11.1172 49.541 11.0645 49.3184 10.959C49.0957 10.8535 48.918 10.6777 48.7852 10.4316C48.6562 10.1816 48.5918 9.8457 48.5918 9.42383V3.11914ZM51.7266 7.90039V7.76562C51.7266 7.30859 51.793 6.88477 51.9258 6.49414C52.0586 6.09961 52.25 5.75781 52.5 5.46875C52.75 5.17578 53.0527 4.94922 53.4082 4.78906C53.7637 4.625 54.1621 4.54297 54.6035 4.54297C55.0488 4.54297 55.4492 4.625 55.8047 4.78906C56.1641 4.94922 56.4688 5.17578 56.7188 5.46875C56.9727 5.75781 57.166 6.09961 57.2988 6.49414C57.4316 6.88477 57.498 7.30859 57.498 7.76562V7.90039C57.498 8.35742 57.4316 8.78125 57.2988 9.17188C57.166 9.5625 56.9727 9.9043 56.7188 10.1973C56.4688 10.4863 56.166 10.7129 55.8105 10.877C55.459 11.0371 55.0605 11.1172 54.6152 11.1172C54.1699 11.1172 53.7695 11.0371 53.4141 10.877C53.0586 10.7129 52.7539 10.4863 52.5 10.1973C52.25 9.9043 52.0586 9.5625 51.9258 9.17188C51.793 8.78125 51.7266 8.35742 51.7266 7.90039ZM52.8105 7.76562V7.90039C52.8105 8.2168 52.8477 8.51562 52.9219 8.79688C52.9961 9.07422 53.1074 9.32031 53.2559 9.53516C53.4082 9.75 53.5977 9.91992 53.8242 10.0449C54.0508 10.166 54.3145 10.2266 54.6152 10.2266C54.9121 10.2266 55.1719 10.166 55.3945 10.0449C55.6211 9.91992 55.8086 9.75 55.957 9.53516C56.1055 9.32031 56.2168 9.07422 56.291 8.79688C56.3691 8.51562 56.4082 8.2168 56.4082 7.90039V7.76562C56.4082 7.45312 56.3691 7.1582 56.291 6.88086C56.2168 6.59961 56.1035 6.35156 55.9512 6.13672C55.8027 5.91797 55.6152 5.74609 55.3887 5.62109C55.166 5.49609 54.9043 5.43359 54.6035 5.43359C54.3066 5.43359 54.0449 5.49609 53.8184 5.62109C53.5957 5.74609 53.4082 5.91797 53.2559 6.13672C53.1074 6.35156 52.9961 6.59961 52.9219 6.88086C52.8477 7.1582 52.8105 7.45312 52.8105 7.76562ZM55.9043 2.11719L56.6367 2.18164C56.6367 2.4668 56.5801 2.7168 56.4668 2.93164C56.3535 3.14648 56.2012 3.3125 56.0098 3.42969C55.8223 3.54688 55.6094 3.60547 55.3711 3.60547C55.1719 3.60547 55.0078 3.57812 54.8789 3.52344C54.75 3.46484 54.6348 3.40039 54.5332 3.33008C54.4316 3.25586 54.3242 3.19141 54.2109 3.13672C54.1016 3.07812 53.9648 3.04883 53.8008 3.04883C53.6367 3.04883 53.498 3.11133 53.3848 3.23633C53.2754 3.36133 53.2207 3.51563 53.2207 3.69922L52.4883 3.66406C52.4883 3.37891 52.543 3.12891 52.6523 2.91406C52.7656 2.69531 52.918 2.52539 53.1094 2.4043C53.3008 2.2793 53.5137 2.2168 53.748 2.2168C53.916 2.2168 54.0625 2.24609 54.1875 2.30469C54.3164 2.35937 54.4375 2.42383 54.5508 2.49805C54.6641 2.56836 54.7812 2.63281 54.9023 2.69141C55.0234 2.74609 55.1621 2.77344 55.3184 2.77344C55.4824 2.77344 55.6211 2.71094 55.7344 2.58594C55.8477 2.45703 55.9043 2.30078 55.9043 2.11719ZM61.4883 11.1172C61.0469 11.1172 60.6465 11.043 60.2871 10.8945C59.9316 10.7422 59.625 10.5293 59.3672 10.2559C59.1133 9.98242 58.918 9.6582 58.7812 9.2832C58.6445 8.9082 58.5762 8.49805 58.5762 8.05273V7.80664C58.5762 7.29102 58.6523 6.83203 58.8047 6.42969C58.957 6.02344 59.1641 5.67969 59.4258 5.39844C59.6875 5.11719 59.9844 4.9043 60.3164 4.75977C60.6484 4.61523 60.9922 4.54297 61.3477 4.54297C61.8008 4.54297 62.1914 4.62109 62.5195 4.77734C62.8516 4.93359 63.123 5.15234 63.334 5.43359C63.5449 5.71094 63.7012 6.03906 63.8027 6.41797C63.9043 6.79297 63.9551 7.20312 63.9551 7.64844V8.13477H59.2207V7.25H62.8711V7.16797C62.8555 6.88672 62.7969 6.61328 62.6953 6.34766C62.5977 6.08203 62.4414 5.86328 62.2266 5.69141C62.0117 5.51953 61.7188 5.43359 61.3477 5.43359C61.1016 5.43359 60.875 5.48633 60.668 5.5918C60.4609 5.69336 60.2832 5.8457 60.1348 6.04883C59.9863 6.25195 59.8711 6.5 59.7891 6.79297C59.707 7.08594 59.666 7.42383 59.666 7.80664V8.05273C59.666 8.35352 59.707 8.63672 59.7891 8.90234C59.875 9.16406 59.998 9.39453 60.1582 9.59375C60.3223 9.79297 60.5195 9.94922 60.75 10.0625C60.9844 10.1758 61.25 10.2324 61.5469 10.2324C61.9297 10.2324 62.2539 10.1543 62.5195 9.99805C62.7852 9.8418 63.0176 9.63281 63.2168 9.37109L63.873 9.89258C63.7363 10.0996 63.5625 10.2969 63.3516 10.4844C63.1406 10.6719 62.8809 10.8242 62.5723 10.9414C62.2676 11.0586 61.9062 11.1172 61.4883 11.1172ZM68.9121 9.31836C68.9121 9.16211 68.877 9.01758 68.8066 8.88477C68.7402 8.74805 68.6016 8.625 68.3906 8.51562C68.1836 8.40234 67.8711 8.30469 67.4531 8.22266C67.1016 8.14844 66.7832 8.06055 66.498 7.95898C66.2168 7.85742 65.9766 7.73438 65.7773 7.58984C65.582 7.44531 65.4316 7.27539 65.3262 7.08008C65.2207 6.88477 65.168 6.65625 65.168 6.39453C65.168 6.14453 65.2227 5.9082 65.332 5.68555C65.4453 5.46289 65.6035 5.26562 65.8066 5.09375C66.0137 4.92188 66.2617 4.78711 66.5508 4.68945C66.8398 4.5918 67.1621 4.54297 67.5176 4.54297C68.0254 4.54297 68.459 4.63281 68.8184 4.8125C69.1777 4.99219 69.4531 5.23242 69.6445 5.5332C69.8359 5.83008 69.9316 6.16016 69.9316 6.52344H68.8477C68.8477 6.34766 68.7949 6.17773 68.6895 6.01367C68.5879 5.8457 68.4375 5.70703 68.2383 5.59766C68.043 5.48828 67.8027 5.43359 67.5176 5.43359C67.2168 5.43359 66.9727 5.48047 66.7852 5.57422C66.6016 5.66406 66.4668 5.7793 66.3809 5.91992C66.2988 6.06055 66.2578 6.20898 66.2578 6.36523C66.2578 6.48242 66.2773 6.58789 66.3164 6.68164C66.3594 6.77148 66.4336 6.85547 66.5391 6.93359C66.6445 7.00781 66.793 7.07812 66.9844 7.14453C67.1758 7.21094 67.4199 7.27734 67.7168 7.34375C68.2363 7.46094 68.6641 7.60156 69 7.76562C69.3359 7.92969 69.5859 8.13086 69.75 8.36914C69.9141 8.60742 69.9961 8.89648 69.9961 9.23633C69.9961 9.51367 69.9375 9.76758 69.8203 9.99805C69.707 10.2285 69.541 10.4277 69.3223 10.5957C69.1074 10.7598 68.8496 10.8887 68.5488 10.9824C68.252 11.0723 67.918 11.1172 67.5469 11.1172C66.9883 11.1172 66.5156 11.0176 66.1289 10.8184C65.7422 10.6191 65.4492 10.3613 65.25 10.0449C65.0508 9.72852 64.9512 9.39453 64.9512 9.04297H66.041C66.0566 9.33984 66.1426 9.57617 66.2988 9.75195C66.4551 9.92383 66.6465 10.0469 66.873 10.1211C67.0996 10.1914 67.3242 10.2266 67.5469 10.2266C67.8438 10.2266 68.0918 10.1875 68.291 10.1094C68.4941 10.0312 68.6484 9.92383 68.7539 9.78711C68.8594 9.65039 68.9121 9.49414 68.9121 9.31836ZM78.3926 9.76953V2H79.4824V11H78.4863L78.3926 9.76953ZM74.127 7.90039V7.77734C74.127 7.29297 74.1855 6.85352 74.3027 6.45898C74.4238 6.06055 74.5938 5.71875 74.8125 5.43359C75.0352 5.14844 75.2988 4.92969 75.6035 4.77734C75.9121 4.62109 76.2559 4.54297 76.6348 4.54297C77.0332 4.54297 77.3809 4.61328 77.6777 4.75391C77.9785 4.89062 78.2324 5.0918 78.4395 5.35742C78.6504 5.61914 78.8164 5.93555 78.9375 6.30664C79.0586 6.67773 79.1426 7.09766 79.1895 7.56641V8.10547C79.1465 8.57031 79.0625 8.98828 78.9375 9.35938C78.8164 9.73047 78.6504 10.0469 78.4395 10.3086C78.2324 10.5703 77.9785 10.7715 77.6777 10.9121C77.377 11.0488 77.0254 11.1172 76.623 11.1172C76.252 11.1172 75.9121 11.0371 75.6035 10.877C75.2988 10.7168 75.0352 10.4922 74.8125 10.2031C74.5938 9.91406 74.4238 9.57422 74.3027 9.18359C74.1855 8.78906 74.127 8.36133 74.127 7.90039ZM75.2168 7.77734V7.90039C75.2168 8.2168 75.248 8.51367 75.3105 8.79102C75.377 9.06836 75.4785 9.3125 75.6152 9.52344C75.752 9.73438 75.9258 9.90039 76.1367 10.0215C76.3477 10.1387 76.5996 10.1973 76.8926 10.1973C77.252 10.1973 77.5469 10.1211 77.7773 9.96875C78.0117 9.81641 78.1992 9.61523 78.3398 9.36523C78.4805 9.11523 78.5898 8.84375 78.668 8.55078V7.13867C78.6211 6.92383 78.5527 6.7168 78.4629 6.51758C78.377 6.31445 78.2637 6.13477 78.123 5.97852C77.9863 5.81836 77.8164 5.69141 77.6133 5.59766C77.4141 5.50391 77.1777 5.45703 76.9043 5.45703C76.6074 5.45703 76.3516 5.51953 76.1367 5.64453C75.9258 5.76562 75.752 5.93359 75.6152 6.14844C75.4785 6.35938 75.377 6.60547 75.3105 6.88672C75.248 7.16406 75.2168 7.46094 75.2168 7.77734ZM83.8008 11.1172C83.3594 11.1172 82.959 11.043 82.5996 10.8945C82.2441 10.7422 81.9375 10.5293 81.6797 10.2559C81.4258 9.98242 81.2305 9.6582 81.0938 9.2832C80.957 8.9082 80.8887 8.49805 80.8887 8.05273V7.80664C80.8887 7.29102 80.9648 6.83203 81.1172 6.42969C81.2695 6.02344 81.4766 5.67969 81.7383 5.39844C82 5.11719 82.2969 4.9043 82.6289 4.75977C82.9609 4.61523 83.3047 4.54297 83.6602 4.54297C84.1133 4.54297 84.5039 4.62109 84.832 4.77734C85.1641 4.93359 85.4355 5.15234 85.6465 5.43359C85.8574 5.71094 86.0137 6.03906 86.1152 6.41797C86.2168 6.79297 86.2676 7.20312 86.2676 7.64844V8.13477H81.5332V7.25H85.1836V7.16797C85.168 6.88672 85.1094 6.61328 85.0078 6.34766C84.9102 6.08203 84.7539 5.86328 84.5391 5.69141C84.3242 5.51953 84.0312 5.43359 83.6602 5.43359C83.4141 5.43359 83.1875 5.48633 82.9805 5.5918C82.7734 5.69336 82.5957 5.8457 82.4473 6.04883C82.2988 6.25195 82.1836 6.5 82.1016 6.79297C82.0195 7.08594 81.9785 7.42383 81.9785 7.80664V8.05273C81.9785 8.35352 82.0195 8.63672 82.1016 8.90234C82.1875 9.16406 82.3105 9.39453 82.4707 9.59375C82.6348 9.79297 82.832 9.94922 83.0625 10.0625C83.2969 10.1758 83.5625 10.2324 83.8594 10.2324C84.2422 10.2324 84.5664 10.1543 84.832 9.99805C85.0977 9.8418 85.3301 9.63281 85.5293 9.37109L86.1855 9.89258C86.0488 10.0996 85.875 10.2969 85.6641 10.4844C85.4531 10.6719 85.1934 10.8242 84.8848 10.9414C84.5801 11.0586 84.2188 11.1172 83.8008 11.1172ZM94.2012 9.31836C94.2012 9.16211 94.166 9.01758 94.0957 8.88477C94.0293 8.74805 93.8906 8.625 93.6797 8.51562C93.4727 8.40234 93.1602 8.30469 92.7422 8.22266C92.3906 8.14844 92.0723 8.06055 91.7871 7.95898C91.5059 7.85742 91.2656 7.73438 91.0664 7.58984C90.8711 7.44531 90.7207 7.27539 90.6152 7.08008C90.5098 6.88477 90.457 6.65625 90.457 6.39453C90.457 6.14453 90.5117 5.9082 90.6211 5.68555C90.7344 5.46289 90.8926 5.26562 91.0957 5.09375C91.3027 4.92188 91.5508 4.78711 91.8398 4.68945C92.1289 4.5918 92.4512 4.54297 92.8066 4.54297C93.3145 4.54297 93.748 4.63281 94.1074 4.8125C94.4668 4.99219 94.7422 5.23242 94.9336 5.5332C95.125 5.83008 95.2207 6.16016 95.2207 6.52344H94.1367C94.1367 6.34766 94.084 6.17773 93.9785 6.01367C93.877 5.8457 93.7266 5.70703 93.5273 5.59766C93.332 5.48828 93.0918 5.43359 92.8066 5.43359C92.5059 5.43359 92.2617 5.48047 92.0742 5.57422C91.8906 5.66406 91.7559 5.7793 91.6699 5.91992C91.5879 6.06055 91.5469 6.20898 91.5469 6.36523C91.5469 6.48242 91.5664 6.58789 91.6055 6.68164C91.6484 6.77148 91.7227 6.85547 91.8281 6.93359C91.9336 7.00781 92.082 7.07812 92.2734 7.14453C92.4648 7.21094 92.709 7.27734 93.0059 7.34375C93.5254 7.46094 93.9531 7.60156 94.2891 7.76562C94.625 7.92969 94.875 8.13086 95.0391 8.36914C95.2031 8.60742 95.2852 8.89648 95.2852 9.23633C95.2852 9.51367 95.2266 9.76758 95.1094 9.99805C94.9961 10.2285 94.8301 10.4277 94.6113 10.5957C94.3965 10.7598 94.1387 10.8887 93.8379 10.9824C93.541 11.0723 93.207 11.1172 92.8359 11.1172C92.2773 11.1172 91.8047 11.0176 91.418 10.8184C91.0312 10.6191 90.7383 10.3613 90.5391 10.0449C90.3398 9.72852 90.2402 9.39453 90.2402 9.04297H91.3301C91.3457 9.33984 91.4316 9.57617 91.5879 9.75195C91.7441 9.92383 91.9355 10.0469 92.1621 10.1211C92.3887 10.1914 92.6133 10.2266 92.8359 10.2266C93.1328 10.2266 93.3809 10.1875 93.5801 10.1094C93.7832 10.0312 93.9375 9.92383 94.043 9.78711C94.1484 9.65039 94.2012 9.49414 94.2012 9.31836ZM99.3398 11.1172C98.8984 11.1172 98.498 11.043 98.1387 10.8945C97.7832 10.7422 97.4766 10.5293 97.2188 10.2559C96.9648 9.98242 96.7695 9.6582 96.6328 9.2832C96.4961 8.9082 96.4277 8.49805 96.4277 8.05273V7.80664C96.4277 7.29102 96.5039 6.83203 96.6562 6.42969C96.8086 6.02344 97.0156 5.67969 97.2773 5.39844C97.5391 5.11719 97.8359 4.9043 98.168 4.75977C98.5 4.61523 98.8438 4.54297 99.1992 4.54297C99.6523 4.54297 100.043 4.62109 100.371 4.77734C100.703 4.93359 100.975 5.15234 101.186 5.43359C101.396 5.71094 101.553 6.03906 101.654 6.41797C101.756 6.79297 101.807 7.20312 101.807 7.64844V8.13477H97.0723V7.25H100.723V7.16797C100.707 6.88672 100.648 6.61328 100.547 6.34766C100.449 6.08203 100.293 5.86328 100.078 5.69141C99.8633 5.51953 99.5703 5.43359 99.1992 5.43359C98.9531 5.43359 98.7266 5.48633 98.5195 5.5918C98.3125 5.69336 98.1348 5.8457 97.9863 6.04883C97.8379 6.25195 97.7227 6.5 97.6406 6.79297C97.5586 7.08594 97.5176 7.42383 97.5176 7.80664V8.05273C97.5176 8.35352 97.5586 8.63672 97.6406 8.90234C97.7266 9.16406 97.8496 9.39453 98.0098 9.59375C98.1738 9.79297 98.3711 9.94922 98.6016 10.0625C98.8359 10.1758 99.1016 10.2324 99.3984 10.2324C99.7812 10.2324 100.105 10.1543 100.371 9.99805C100.637 9.8418 100.869 9.63281 101.068 9.37109L101.725 9.89258C101.588 10.0996 101.414 10.2969 101.203 10.4844C100.992 10.6719 100.732 10.8242 100.424 10.9414C100.119 11.0586 99.7578 11.1172 99.3398 11.1172ZM107.18 4.66016H108.164V10.8652C108.164 11.4238 108.051 11.9004 107.824 12.2949C107.598 12.6895 107.281 12.9883 106.875 13.1914C106.473 13.3984 106.008 13.502 105.48 13.502C105.262 13.502 105.004 13.4668 104.707 13.3965C104.414 13.3301 104.125 13.2148 103.84 13.0508C103.559 12.8906 103.322 12.6738 103.131 12.4004L103.699 11.7559C103.965 12.0762 104.242 12.2988 104.531 12.4238C104.824 12.5488 105.113 12.6113 105.398 12.6113C105.742 12.6113 106.039 12.5469 106.289 12.418C106.539 12.2891 106.732 12.0977 106.869 11.8438C107.01 11.5938 107.08 11.2852 107.08 10.918V6.05469L107.18 4.66016ZM102.814 7.90039V7.77734C102.814 7.29297 102.871 6.85352 102.984 6.45898C103.102 6.06055 103.268 5.71875 103.482 5.43359C103.701 5.14844 103.965 4.92969 104.273 4.77734C104.582 4.62109 104.93 4.54297 105.316 4.54297C105.715 4.54297 106.062 4.61328 106.359 4.75391C106.66 4.89062 106.914 5.0918 107.121 5.35742C107.332 5.61914 107.498 5.93555 107.619 6.30664C107.74 6.67773 107.824 7.09766 107.871 7.56641V8.10547C107.828 8.57031 107.744 8.98828 107.619 9.35938C107.498 9.73047 107.332 10.0469 107.121 10.3086C106.914 10.5703 106.66 10.7715 106.359 10.9121C106.059 11.0488 105.707 11.1172 105.305 11.1172C104.926 11.1172 104.582 11.0371 104.273 10.877C103.969 10.7168 103.707 10.4922 103.488 10.2031C103.27 9.91406 103.102 9.57422 102.984 9.18359C102.871 8.78906 102.814 8.36133 102.814 7.90039ZM103.898 7.77734V7.90039C103.898 8.2168 103.93 8.51367 103.992 8.79102C104.059 9.06836 104.158 9.3125 104.291 9.52344C104.428 9.73438 104.602 9.90039 104.812 10.0215C105.023 10.1387 105.275 10.1973 105.568 10.1973C105.928 10.1973 106.225 10.1211 106.459 9.96875C106.693 9.81641 106.879 9.61523 107.016 9.36523C107.156 9.11523 107.266 8.84375 107.344 8.55078V7.13867C107.301 6.92383 107.234 6.7168 107.145 6.51758C107.059 6.31445 106.945 6.13477 106.805 5.97852C106.668 5.81836 106.498 5.69141 106.295 5.59766C106.092 5.50391 105.854 5.45703 105.58 5.45703C105.283 5.45703 105.027 5.51953 104.812 5.64453C104.602 5.76562 104.428 5.93359 104.291 6.14844C104.158 6.35938 104.059 6.60547 103.992 6.88672C103.93 7.16406 103.898 7.46094 103.898 7.77734ZM113.689 9.53516V4.66016H114.779V11H113.742L113.689 9.53516ZM113.895 8.19922L114.346 8.1875C114.346 8.60938 114.301 9 114.211 9.35938C114.125 9.71484 113.984 10.0234 113.789 10.2852C113.594 10.5469 113.338 10.752 113.021 10.9004C112.705 11.0449 112.32 11.1172 111.867 11.1172C111.559 11.1172 111.275 11.0723 111.018 10.9824C110.764 10.8926 110.545 10.7539 110.361 10.5664C110.178 10.3789 110.035 10.1348 109.934 9.83398C109.836 9.5332 109.787 9.17188 109.787 8.75V4.66016H110.871V8.76172C110.871 9.04688 110.902 9.2832 110.965 9.4707C111.031 9.6543 111.119 9.80078 111.229 9.91016C111.342 10.0156 111.467 10.0898 111.604 10.1328C111.744 10.1758 111.889 10.1973 112.037 10.1973C112.498 10.1973 112.863 10.1094 113.133 9.93359C113.402 9.75391 113.596 9.51367 113.713 9.21289C113.834 8.9082 113.895 8.57031 113.895 8.19922ZM117.516 5.65625V11H116.432V4.66016H117.486L117.516 5.65625ZM119.496 4.625L119.49 5.63281C119.4 5.61328 119.314 5.60156 119.232 5.59766C119.154 5.58984 119.064 5.58594 118.963 5.58594C118.713 5.58594 118.492 5.625 118.301 5.70312C118.109 5.78125 117.947 5.89062 117.814 6.03125C117.682 6.17188 117.576 6.33984 117.498 6.53516C117.424 6.72656 117.375 6.9375 117.352 7.16797L117.047 7.34375C117.047 6.96094 117.084 6.60156 117.158 6.26562C117.236 5.92969 117.355 5.63281 117.516 5.375C117.676 5.11328 117.879 4.91016 118.125 4.76562C118.375 4.61719 118.672 4.54297 119.016 4.54297C119.094 4.54297 119.184 4.55273 119.285 4.57227C119.387 4.58789 119.457 4.60547 119.496 4.625ZM124.002 9.91602V6.65234C124.002 6.40234 123.951 6.18555 123.85 6.00195C123.752 5.81445 123.604 5.66992 123.404 5.56836C123.205 5.4668 122.959 5.41602 122.666 5.41602C122.393 5.41602 122.152 5.46289 121.945 5.55664C121.742 5.65039 121.582 5.77344 121.465 5.92578C121.352 6.07812 121.295 6.24219 121.295 6.41797H120.211C120.211 6.19141 120.27 5.9668 120.387 5.74414C120.504 5.52148 120.672 5.32031 120.891 5.14062C121.113 4.95703 121.379 4.8125 121.688 4.70703C122 4.59766 122.348 4.54297 122.73 4.54297C123.191 4.54297 123.598 4.62109 123.949 4.77734C124.305 4.93359 124.582 5.16992 124.781 5.48633C124.984 5.79883 125.086 6.19141 125.086 6.66406V9.61719C125.086 9.82812 125.104 10.0527 125.139 10.291C125.178 10.5293 125.234 10.7344 125.309 10.9062V11H124.178C124.123 10.875 124.08 10.709 124.049 10.502C124.018 10.291 124.002 10.0957 124.002 9.91602ZM124.189 7.15625L124.201 7.91797H123.105C122.797 7.91797 122.521 7.94336 122.279 7.99414C122.037 8.04102 121.834 8.11328 121.67 8.21094C121.506 8.30859 121.381 8.43164 121.295 8.58008C121.209 8.72461 121.166 8.89453 121.166 9.08984C121.166 9.28906 121.211 9.4707 121.301 9.63477C121.391 9.79883 121.525 9.92969 121.705 10.0273C121.889 10.1211 122.113 10.168 122.379 10.168C122.711 10.168 123.004 10.0977 123.258 9.95703C123.512 9.81641 123.713 9.64453 123.861 9.44141C124.014 9.23828 124.096 9.04102 124.107 8.84961L124.57 9.37109C124.543 9.53516 124.469 9.7168 124.348 9.91602C124.227 10.1152 124.064 10.3066 123.861 10.4902C123.662 10.6699 123.424 10.8203 123.146 10.9414C122.873 11.0586 122.564 11.1172 122.221 11.1172C121.791 11.1172 121.414 11.0332 121.09 10.8652C120.77 10.6973 120.52 10.4727 120.34 10.1914C120.164 9.90625 120.076 9.58789 120.076 9.23633C120.076 8.89648 120.143 8.59766 120.275 8.33984C120.408 8.07812 120.6 7.86133 120.85 7.68945C121.1 7.51367 121.4 7.38086 121.752 7.29102C122.104 7.20117 122.496 7.15625 122.93 7.15625H124.189ZM127.875 6.01367V11H126.791V4.66016H127.816L127.875 6.01367ZM127.617 7.58984L127.166 7.57227C127.17 7.13867 127.234 6.73828 127.359 6.37109C127.484 6 127.66 5.67773 127.887 5.4043C128.113 5.13086 128.383 4.91992 128.695 4.77148C129.012 4.61914 129.361 4.54297 129.744 4.54297C130.057 4.54297 130.338 4.58594 130.588 4.67188C130.838 4.75391 131.051 4.88672 131.227 5.07031C131.406 5.25391 131.543 5.49219 131.637 5.78516C131.73 6.07422 131.777 6.42773 131.777 6.8457V11H130.688V6.83398C130.688 6.50195 130.639 6.23633 130.541 6.03711C130.443 5.83398 130.301 5.6875 130.113 5.59766C129.926 5.50391 129.695 5.45703 129.422 5.45703C129.152 5.45703 128.906 5.51367 128.684 5.62695C128.465 5.74023 128.275 5.89648 128.115 6.0957C127.959 6.29492 127.836 6.52344 127.746 6.78125C127.66 7.03516 127.617 7.30469 127.617 7.58984ZM135.961 10.2266C136.219 10.2266 136.457 10.1738 136.676 10.0684C136.895 9.96289 137.074 9.81836 137.215 9.63477C137.355 9.44727 137.436 9.23438 137.455 8.99609H138.486C138.467 9.37109 138.34 9.7207 138.105 10.0449C137.875 10.3652 137.572 10.625 137.197 10.8242C136.822 11.0195 136.41 11.1172 135.961 11.1172C135.484 11.1172 135.068 11.0332 134.713 10.8652C134.361 10.6973 134.068 10.4668 133.834 10.1738C133.604 9.88086 133.43 9.54492 133.312 9.16602C133.199 8.7832 133.143 8.37891 133.143 7.95312V7.70703C133.143 7.28125 133.199 6.87891 133.312 6.5C133.43 6.11719 133.604 5.7793 133.834 5.48633C134.068 5.19336 134.361 4.96289 134.713 4.79492C135.068 4.62695 135.484 4.54297 135.961 4.54297C136.457 4.54297 136.891 4.64453 137.262 4.84766C137.633 5.04688 137.924 5.32031 138.135 5.66797C138.35 6.01172 138.467 6.40234 138.486 6.83984H137.455C137.436 6.57812 137.361 6.3418 137.232 6.13086C137.107 5.91992 136.936 5.75195 136.717 5.62695C136.502 5.49805 136.25 5.43359 135.961 5.43359C135.629 5.43359 135.35 5.5 135.123 5.63281C134.9 5.76172 134.723 5.9375 134.59 6.16016C134.461 6.37891 134.367 6.62305 134.309 6.89258C134.254 7.1582 134.227 7.42969 134.227 7.70703V7.95312C134.227 8.23047 134.254 8.50391 134.309 8.77344C134.363 9.04297 134.455 9.28711 134.584 9.50586C134.717 9.72461 134.895 9.90039 135.117 10.0332C135.344 10.1621 135.625 10.2266 135.961 10.2266ZM135.363 11.0586H136.143L136.072 11.3691C136.299 11.4082 136.504 11.502 136.688 11.6504C136.875 11.7988 136.969 12.043 136.969 12.3828C136.969 12.5664 136.93 12.7324 136.852 12.8809C136.777 13.0332 136.666 13.1621 136.518 13.2676C136.369 13.377 136.184 13.4609 135.961 13.5195C135.742 13.5781 135.486 13.6074 135.193 13.6074L135.152 12.9805C135.332 12.9805 135.494 12.9609 135.639 12.9219C135.787 12.8828 135.904 12.8203 135.99 12.7344C136.08 12.6484 136.125 12.5371 136.125 12.4004C136.125 12.2715 136.092 12.1699 136.025 12.0957C135.959 12.0215 135.855 11.9648 135.715 11.9258C135.578 11.8906 135.4 11.8652 135.182 11.8496L135.363 11.0586ZM143.443 9.91602V6.65234C143.443 6.40234 143.393 6.18555 143.291 6.00195C143.193 5.81445 143.045 5.66992 142.846 5.56836C142.646 5.4668 142.4 5.41602 142.107 5.41602C141.834 5.41602 141.594 5.46289 141.387 5.55664C141.184 5.65039 141.023 5.77344 140.906 5.92578C140.793 6.07812 140.736 6.24219 140.736 6.41797H139.652C139.652 6.19141 139.711 5.9668 139.828 5.74414C139.945 5.52148 140.113 5.32031 140.332 5.14062C140.555 4.95703 140.82 4.8125 141.129 4.70703C141.441 4.59766 141.789 4.54297 142.172 4.54297C142.633 4.54297 143.039 4.62109 143.391 4.77734C143.746 4.93359 144.023 5.16992 144.223 5.48633C144.426 5.79883 144.527 6.19141 144.527 6.66406V9.61719C144.527 9.82812 144.545 10.0527 144.58 10.291C144.619 10.5293 144.676 10.7344 144.75 10.9062V11H143.619C143.564 10.875 143.521 10.709 143.49 10.502C143.459 10.291 143.443 10.0957 143.443 9.91602ZM143.631 7.15625L143.643 7.91797H142.547C142.238 7.91797 141.963 7.94336 141.721 7.99414C141.479 8.04102 141.275 8.11328 141.111 8.21094C140.947 8.30859 140.822 8.43164 140.736 8.58008C140.65 8.72461 140.607 8.89453 140.607 9.08984C140.607 9.28906 140.652 9.4707 140.742 9.63477C140.832 9.79883 140.967 9.92969 141.146 10.0273C141.33 10.1211 141.555 10.168 141.82 10.168C142.152 10.168 142.445 10.0977 142.699 9.95703C142.953 9.81641 143.154 9.64453 143.303 9.44141C143.455 9.23828 143.537 9.04102 143.549 8.84961L144.012 9.37109C143.984 9.53516 143.91 9.7168 143.789 9.91602C143.668 10.1152 143.506 10.3066 143.303 10.4902C143.104 10.6699 142.865 10.8203 142.588 10.9414C142.314 11.0586 142.006 11.1172 141.662 11.1172C141.232 11.1172 140.855 11.0332 140.531 10.8652C140.211 10.6973 139.961 10.4727 139.781 10.1914C139.605 9.90625 139.518 9.58789 139.518 9.23633C139.518 8.89648 139.584 8.59766 139.717 8.33984C139.85 8.07812 140.041 7.86133 140.291 7.68945C140.541 7.51367 140.842 7.38086 141.193 7.29102C141.545 7.20117 141.938 7.15625 142.371 7.15625H143.631ZM1.91016 19.6562V25H0.826172V18.6602H1.88086L1.91016 19.6562ZM3.89062 18.625L3.88477 19.6328C3.79492 19.6133 3.70898 19.6016 3.62695 19.5977C3.54883 19.5898 3.45898 19.5859 3.35742 19.5859C3.10742 19.5859 2.88672 19.625 2.69531 19.7031C2.50391 19.7812 2.3418 19.8906 2.20898 20.0312C2.07617 20.1719 1.9707 20.3398 1.89258 20.5352C1.81836 20.7266 1.76953 20.9375 1.74609 21.168L1.44141 21.3438C1.44141 20.9609 1.47852 20.6016 1.55273 20.2656C1.63086 19.9297 1.75 19.6328 1.91016 19.375C2.07031 19.1133 2.27344 18.9102 2.51953 18.7656C2.76953 18.6172 3.06641 18.543 3.41016 18.543C3.48828 18.543 3.57812 18.5527 3.67969 18.5723C3.78125 18.5879 3.85156 18.6055 3.89062 18.625ZM7.40625 25.1172C6.96484 25.1172 6.56445 25.043 6.20508 24.8945C5.84961 24.7422 5.54297 24.5293 5.28516 24.2559C5.03125 23.9824 4.83594 23.6582 4.69922 23.2832C4.5625 22.9082 4.49414 22.498 4.49414 22.0527V21.8066C4.49414 21.291 4.57031 20.832 4.72266 20.4297C4.875 20.0234 5.08203 19.6797 5.34375 19.3984C5.60547 19.1172 5.90234 18.9043 6.23438 18.7598C6.56641 18.6152 6.91016 18.543 7.26562 18.543C7.71875 18.543 8.10938 18.6211 8.4375 18.7773C8.76953 18.9336 9.04102 19.1523 9.25195 19.4336C9.46289 19.7109 9.61914 20.0391 9.7207 20.418C9.82227 20.793 9.87305 21.2031 9.87305 21.6484V22.1348H5.13867V21.25H8.78906V21.168C8.77344 20.8867 8.71484 20.6133 8.61328 20.3477C8.51562 20.082 8.35938 19.8633 8.14453 19.6914C7.92969 19.5195 7.63672 19.4336 7.26562 19.4336C7.01953 19.4336 6.79297 19.4863 6.58594 19.5918C6.37891 19.6934 6.20117 19.8457 6.05273 20.0488C5.9043 20.252 5.78906 20.5 5.70703 20.793C5.625 21.0859 5.58398 21.4238 5.58398 21.8066V22.0527C5.58398 22.3535 5.625 22.6367 5.70703 22.9023C5.79297 23.1641 5.91602 23.3945 6.07617 23.5938C6.24023 23.793 6.4375 23.9492 6.66797 24.0625C6.90234 24.1758 7.16797 24.2324 7.46484 24.2324C7.84766 24.2324 8.17188 24.1543 8.4375 23.998C8.70312 23.8418 8.93555 23.6328 9.13477 23.3711L9.79102 23.8926C9.6543 24.0996 9.48047 24.2969 9.26953 24.4844C9.05859 24.6719 8.79883 24.8242 8.49023 24.9414C8.18555 25.0586 7.82422 25.1172 7.40625 25.1172ZM14.8301 23.3184C14.8301 23.1621 14.7949 23.0176 14.7246 22.8848C14.6582 22.748 14.5195 22.625 14.3086 22.5156C14.1016 22.4023 13.7891 22.3047 13.3711 22.2227C13.0195 22.1484 12.7012 22.0605 12.416 21.959C12.1348 21.8574 11.8945 21.7344 11.6953 21.5898C11.5 21.4453 11.3496 21.2754 11.2441 21.0801C11.1387 20.8848 11.0859 20.6562 11.0859 20.3945C11.0859 20.1445 11.1406 19.9082 11.25 19.6855C11.3633 19.4629 11.5215 19.2656 11.7246 19.0938C11.9316 18.9219 12.1797 18.7871 12.4688 18.6895C12.7578 18.5918 13.0801 18.543 13.4355 18.543C13.9434 18.543 14.377 18.6328 14.7363 18.8125C15.0957 18.9922 15.3711 19.2324 15.5625 19.5332C15.7539 19.8301 15.8496 20.1602 15.8496 20.5234H14.7656C14.7656 20.3477 14.7129 20.1777 14.6074 20.0137C14.5059 19.8457 14.3555 19.707 14.1562 19.5977C13.9609 19.4883 13.7207 19.4336 13.4355 19.4336C13.1348 19.4336 12.8906 19.4805 12.7031 19.5742C12.5195 19.6641 12.3848 19.7793 12.2988 19.9199C12.2168 20.0605 12.1758 20.209 12.1758 20.3652C12.1758 20.4824 12.1953 20.5879 12.2344 20.6816C12.2773 20.7715 12.3516 20.8555 12.457 20.9336C12.5625 21.0078 12.7109 21.0781 12.9023 21.1445C13.0938 21.2109 13.3379 21.2773 13.6348 21.3438C14.1543 21.4609 14.582 21.6016 14.918 21.7656C15.2539 21.9297 15.5039 22.1309 15.668 22.3691C15.832 22.6074 15.9141 22.8965 15.9141 23.2363C15.9141 23.5137 15.8555 23.7676 15.7383 23.998C15.625 24.2285 15.459 24.4277 15.2402 24.5957C15.0254 24.7598 14.7676 24.8887 14.4668 24.9824C14.1699 25.0723 13.8359 25.1172 13.4648 25.1172C12.9062 25.1172 12.4336 25.0176 12.0469 24.8184C11.6602 24.6191 11.3672 24.3613 11.168 24.0449C10.9688 23.7285 10.8691 23.3945 10.8691 23.043H11.959C11.9746 23.3398 12.0605 23.5762 12.2168 23.752C12.373 23.9238 12.5645 24.0469 12.791 24.1211C13.0176 24.1914 13.2422 24.2266 13.4648 24.2266C13.7617 24.2266 14.0098 24.1875 14.209 24.1094C14.4121 24.0312 14.5664 23.9238 14.6719 23.7871C14.7773 23.6504 14.8301 23.4941 14.8301 23.3184ZM17.0508 21.9004V21.7656C17.0508 21.3086 17.1172 20.8848 17.25 20.4941C17.3828 20.0996 17.5742 19.7578 17.8242 19.4688C18.0742 19.1758 18.377 18.9492 18.7324 18.7891C19.0879 18.625 19.4863 18.543 19.9277 18.543C20.373 18.543 20.7734 18.625 21.1289 18.7891C21.4883 18.9492 21.793 19.1758 22.043 19.4688C22.2969 19.7578 22.4902 20.0996 22.623 20.4941C22.7559 20.8848 22.8223 21.3086 22.8223 21.7656V21.9004C22.8223 22.3574 22.7559 22.7812 22.623 23.1719C22.4902 23.5625 22.2969 23.9043 22.043 24.1973C21.793 24.4863 21.4902 24.7129 21.1348 24.877C20.7832 25.0371 20.3848 25.1172 19.9395 25.1172C19.4941 25.1172 19.0938 25.0371 18.7383 24.877C18.3828 24.7129 18.0781 24.4863 17.8242 24.1973C17.5742 23.9043 17.3828 23.5625 17.25 23.1719C17.1172 22.7812 17.0508 22.3574 17.0508 21.9004ZM18.1348 21.7656V21.9004C18.1348 22.2168 18.1719 22.5156 18.2461 22.7969C18.3203 23.0742 18.4316 23.3203 18.5801 23.5352C18.7324 23.75 18.9219 23.9199 19.1484 24.0449C19.375 24.166 19.6387 24.2266 19.9395 24.2266C20.2363 24.2266 20.4961 24.166 20.7188 24.0449C20.9453 23.9199 21.1328 23.75 21.2812 23.5352C21.4297 23.3203 21.541 23.0742 21.6152 22.7969C21.6934 22.5156 21.7324 22.2168 21.7324 21.9004V21.7656C21.7324 21.4531 21.6934 21.1582 21.6152 20.8809C21.541 20.5996 21.4277 20.3516 21.2754 20.1367C21.127 19.918 20.9395 19.7461 20.7129 19.6211C20.4902 19.4961 20.2285 19.4336 19.9277 19.4336C19.6309 19.4336 19.3691 19.4961 19.1426 19.6211C18.9199 19.7461 18.7324 19.918 18.5801 20.1367C18.4316 20.3516 18.3203 20.5996 18.2461 20.8809C18.1719 21.1582 18.1348 21.4531 18.1348 21.7656ZM25.3594 16V25H24.2695V16H25.3594ZM29.0273 24.0215L30.7617 18.6602H31.8691L29.5898 25H28.8633L29.0273 24.0215ZM27.5801 18.6602L29.3672 24.0508L29.4902 25H28.7637L26.4668 18.6602H27.5801ZM36.5566 23.916V20.6523C36.5566 20.4023 36.5059 20.1855 36.4043 20.002C36.3066 19.8145 36.1582 19.6699 35.959 19.5684C35.7598 19.4668 35.5137 19.416 35.2207 19.416C34.9473 19.416 34.707 19.4629 34.5 19.5566C34.2969 19.6504 34.1367 19.7734 34.0195 19.9258C33.9062 20.0781 33.8496 20.2422 33.8496 20.418H32.7656C32.7656 20.1914 32.8242 19.9668 32.9414 19.7441C33.0586 19.5215 33.2266 19.3203 33.4453 19.1406C33.668 18.957 33.9336 18.8125 34.2422 18.707C34.5547 18.5977 34.9023 18.543 35.2852 18.543C35.7461 18.543 36.1523 18.6211 36.5039 18.7773C36.8594 18.9336 37.1367 19.1699 37.3359 19.4863C37.5391 19.7988 37.6406 20.1914 37.6406 20.6641V23.6172C37.6406 23.8281 37.6582 24.0527 37.6934 24.291C37.7324 24.5293 37.7891 24.7344 37.8633 24.9062V25H36.7324C36.6777 24.875 36.6348 24.709 36.6035 24.502C36.5723 24.291 36.5566 24.0957 36.5566 23.916ZM36.7441 21.1562L36.7559 21.918H35.6602C35.3516 21.918 35.0762 21.9434 34.834 21.9941C34.5918 22.041 34.3887 22.1133 34.2246 22.2109C34.0605 22.3086 33.9355 22.4316 33.8496 22.5801C33.7637 22.7246 33.7207 22.8945 33.7207 23.0898C33.7207 23.2891 33.7656 23.4707 33.8555 23.6348C33.9453 23.7988 34.0801 23.9297 34.2598 24.0273C34.4434 24.1211 34.668 24.168 34.9336 24.168C35.2656 24.168 35.5586 24.0977 35.8125 23.957C36.0664 23.8164 36.2676 23.6445 36.416 23.4414C36.5684 23.2383 36.6504 23.041 36.6621 22.8496L37.125 23.3711C37.0977 23.5352 37.0234 23.7168 36.9023 23.916C36.7812 24.1152 36.6191 24.3066 36.416 24.4902C36.2168 24.6699 35.9785 24.8203 35.7012 24.9414C35.4277 25.0586 35.1191 25.1172 34.7754 25.1172C34.3457 25.1172 33.9688 25.0332 33.6445 24.8652C33.3242 24.6973 33.0742 24.4727 32.8945 24.1914C32.7188 23.9062 32.6309 23.5879 32.6309 23.2363C32.6309 22.8965 32.6973 22.5977 32.8301 22.3398C32.9629 22.0781 33.1543 21.8613 33.4043 21.6895C33.6543 21.5137 33.9551 21.3809 34.3066 21.291C34.6582 21.2012 35.0508 21.1562 35.4844 21.1562H36.7441ZM42.0352 21.9004V21.7656C42.0352 21.3086 42.1016 20.8848 42.2344 20.4941C42.3672 20.0996 42.5586 19.7578 42.8086 19.4688C43.0586 19.1758 43.3613 18.9492 43.7168 18.7891C44.0723 18.625 44.4707 18.543 44.9121 18.543C45.3574 18.543 45.7578 18.625 46.1133 18.7891C46.4727 18.9492 46.7773 19.1758 47.0273 19.4688C47.2812 19.7578 47.4746 20.0996 47.6074 20.4941C47.7402 20.8848 47.8066 21.3086 47.8066 21.7656V21.9004C47.8066 22.3574 47.7402 22.7812 47.6074 23.1719C47.4746 23.5625 47.2812 23.9043 47.0273 24.1973C46.7773 24.4863 46.4746 24.7129 46.1191 24.877C45.7676 25.0371 45.3691 25.1172 44.9238 25.1172C44.4785 25.1172 44.0781 25.0371 43.7227 24.877C43.3672 24.7129 43.0625 24.4863 42.8086 24.1973C42.5586 23.9043 42.3672 23.5625 42.2344 23.1719C42.1016 22.7812 42.0352 22.3574 42.0352 21.9004ZM43.1191 21.7656V21.9004C43.1191 22.2168 43.1562 22.5156 43.2305 22.7969C43.3047 23.0742 43.416 23.3203 43.5645 23.5352C43.7168 23.75 43.9062 23.9199 44.1328 24.0449C44.3594 24.166 44.623 24.2266 44.9238 24.2266C45.2207 24.2266 45.4805 24.166 45.7031 24.0449C45.9297 23.9199 46.1172 23.75 46.2656 23.5352C46.4141 23.3203 46.5254 23.0742 46.5996 22.7969C46.6777 22.5156 46.7168 22.2168 46.7168 21.9004V21.7656C46.7168 21.4531 46.6777 21.1582 46.5996 20.8809C46.5254 20.5996 46.4121 20.3516 46.2598 20.1367C46.1113 19.918 45.9238 19.7461 45.6973 19.6211C45.4746 19.4961 45.2129 19.4336 44.9121 19.4336C44.6152 19.4336 44.3535 19.4961 44.127 19.6211C43.9043 19.7461 43.7168 19.918 43.5645 20.1367C43.416 20.3516 43.3047 20.5996 43.2305 20.8809C43.1562 21.1582 43.1191 21.4531 43.1191 21.7656ZM56.1387 23.7695V16H57.2285V25H56.2324L56.1387 23.7695ZM51.873 21.9004V21.7773C51.873 21.293 51.9316 20.8535 52.0488 20.459C52.1699 20.0605 52.3398 19.7188 52.5586 19.4336C52.7812 19.1484 53.0449 18.9297 53.3496 18.7773C53.6582 18.6211 54.002 18.543 54.3809 18.543C54.7793 18.543 55.127 18.6133 55.4238 18.7539C55.7246 18.8906 55.9785 19.0918 56.1855 19.3574C56.3965 19.6191 56.5625 19.9355 56.6836 20.3066C56.8047 20.6777 56.8887 21.0977 56.9355 21.5664V22.1055C56.8926 22.5703 56.8086 22.9883 56.6836 23.3594C56.5625 23.7305 56.3965 24.0469 56.1855 24.3086C55.9785 24.5703 55.7246 24.7715 55.4238 24.9121C55.123 25.0488 54.7715 25.1172 54.3691 25.1172C53.998 25.1172 53.6582 25.0371 53.3496 24.877C53.0449 24.7168 52.7812 24.4922 52.5586 24.2031C52.3398 23.9141 52.1699 23.5742 52.0488 23.1836C51.9316 22.7891 51.873 22.3613 51.873 21.9004ZM52.9629 21.7773V21.9004C52.9629 22.2168 52.9941 22.5137 53.0566 22.791C53.123 23.0684 53.2246 23.3125 53.3613 23.5234C53.498 23.7344 53.6719 23.9004 53.8828 24.0215C54.0938 24.1387 54.3457 24.1973 54.6387 24.1973C54.998 24.1973 55.293 24.1211 55.5234 23.9688C55.7578 23.8164 55.9453 23.6152 56.0859 23.3652C56.2266 23.1152 56.3359 22.8438 56.4141 22.5508V21.1387C56.3672 20.9238 56.2988 20.7168 56.209 20.5176C56.123 20.3145 56.0098 20.1348 55.8691 19.9785C55.7324 19.8184 55.5625 19.6914 55.3594 19.5977C55.1602 19.5039 54.9238 19.457 54.6504 19.457C54.3535 19.457 54.0977 19.5195 53.8828 19.6445C53.6719 19.7656 53.498 19.9336 53.3613 20.1484C53.2246 20.3594 53.123 20.6055 53.0566 20.8867C52.9941 21.1641 52.9629 21.4609 52.9629 21.7773ZM61.5469 25.1172C61.1055 25.1172 60.7051 25.043 60.3457 24.8945C59.9902 24.7422 59.6836 24.5293 59.4258 24.2559C59.1719 23.9824 58.9766 23.6582 58.8398 23.2832C58.7031 22.9082 58.6348 22.498 58.6348 22.0527V21.8066C58.6348 21.291 58.7109 20.832 58.8633 20.4297C59.0156 20.0234 59.2227 19.6797 59.4844 19.3984C59.7461 19.1172 60.043 18.9043 60.375 18.7598C60.707 18.6152 61.0508 18.543 61.4062 18.543C61.8594 18.543 62.25 18.6211 62.5781 18.7773C62.9102 18.9336 63.1816 19.1523 63.3926 19.4336C63.6035 19.7109 63.7598 20.0391 63.8613 20.418C63.9629 20.793 64.0137 21.2031 64.0137 21.6484V22.1348H59.2793V21.25H62.9297V21.168C62.9141 20.8867 62.8555 20.6133 62.7539 20.3477C62.6562 20.082 62.5 19.8633 62.2852 19.6914C62.0703 19.5195 61.7773 19.4336 61.4062 19.4336C61.1602 19.4336 60.9336 19.4863 60.7266 19.5918C60.5195 19.6934 60.3418 19.8457 60.1934 20.0488C60.0449 20.252 59.9297 20.5 59.8477 20.793C59.7656 21.0859 59.7246 21.4238 59.7246 21.8066V22.0527C59.7246 22.3535 59.7656 22.6367 59.8477 22.9023C59.9336 23.1641 60.0566 23.3945 60.2168 23.5938C60.3809 23.793 60.5781 23.9492 60.8086 24.0625C61.043 24.1758 61.3086 24.2324 61.6055 24.2324C61.9883 24.2324 62.3125 24.1543 62.5781 23.998C62.8438 23.8418 63.0762 23.6328 63.2754 23.3711L63.9316 23.8926C63.7949 24.0996 63.6211 24.2969 63.4102 24.4844C63.1992 24.6719 62.9395 24.8242 62.6309 24.9414C62.3262 25.0586 61.9648 25.1172 61.5469 25.1172ZM68.9707 23.3184C68.9707 23.1621 68.9355 23.0176 68.8652 22.8848C68.7988 22.748 68.6602 22.625 68.4492 22.5156C68.2422 22.4023 67.9297 22.3047 67.5117 22.2227C67.1602 22.1484 66.8418 22.0605 66.5566 21.959C66.2754 21.8574 66.0352 21.7344 65.8359 21.5898C65.6406 21.4453 65.4902 21.2754 65.3848 21.0801C65.2793 20.8848 65.2266 20.6562 65.2266 20.3945C65.2266 20.1445 65.2812 19.9082 65.3906 19.6855C65.5039 19.4629 65.6621 19.2656 65.8652 19.0938C66.0723 18.9219 66.3203 18.7871 66.6094 18.6895C66.8984 18.5918 67.2207 18.543 67.5762 18.543C68.084 18.543 68.5176 18.6328 68.877 18.8125C69.2363 18.9922 69.5117 19.2324 69.7031 19.5332C69.8945 19.8301 69.9902 20.1602 69.9902 20.5234H68.9062C68.9062 20.3477 68.8535 20.1777 68.748 20.0137C68.6465 19.8457 68.4961 19.707 68.2969 19.5977C68.1016 19.4883 67.8613 19.4336 67.5762 19.4336C67.2754 19.4336 67.0312 19.4805 66.8438 19.5742C66.6602 19.6641 66.5254 19.7793 66.4395 19.9199C66.3574 20.0605 66.3164 20.209 66.3164 20.3652C66.3164 20.4824 66.3359 20.5879 66.375 20.6816C66.418 20.7715 66.4922 20.8555 66.5977 20.9336C66.7031 21.0078 66.8516 21.0781 67.043 21.1445C67.2344 21.2109 67.4785 21.2773 67.7754 21.3438C68.2949 21.4609 68.7227 21.6016 69.0586 21.7656C69.3945 21.9297 69.6445 22.1309 69.8086 22.3691C69.9727 22.6074 70.0547 22.8965 70.0547 23.2363C70.0547 23.5137 69.9961 23.7676 69.8789 23.998C69.7656 24.2285 69.5996 24.4277 69.3809 24.5957C69.166 24.7598 68.9082 24.8887 68.6074 24.9824C68.3105 25.0723 67.9766 25.1172 67.6055 25.1172C67.0469 25.1172 66.5742 25.0176 66.1875 24.8184C65.8008 24.6191 65.5078 24.3613 65.3086 24.0449C65.1094 23.7285 65.0098 23.3945 65.0098 23.043H66.0996C66.1152 23.3398 66.2012 23.5762 66.3574 23.752C66.5137 23.9238 66.7051 24.0469 66.9316 24.1211C67.1582 24.1914 67.3828 24.2266 67.6055 24.2266C67.9023 24.2266 68.1504 24.1875 68.3496 24.1094C68.5527 24.0312 68.707 23.9238 68.8125 23.7871C68.918 23.6504 68.9707 23.4941 68.9707 23.3184ZM75.2168 23.916V20.6523C75.2168 20.4023 75.166 20.1855 75.0645 20.002C74.9668 19.8145 74.8184 19.6699 74.6191 19.5684C74.4199 19.4668 74.1738 19.416 73.8809 19.416C73.6074 19.416 73.3672 19.4629 73.1602 19.5566C72.957 19.6504 72.7969 19.7734 72.6797 19.9258C72.5664 20.0781 72.5098 20.2422 72.5098 20.418H71.4258C71.4258 20.1914 71.4844 19.9668 71.6016 19.7441C71.7188 19.5215 71.8867 19.3203 72.1055 19.1406C72.3281 18.957 72.5938 18.8125 72.9023 18.707C73.2148 18.5977 73.5625 18.543 73.9453 18.543C74.4062 18.543 74.8125 18.6211 75.1641 18.7773C75.5195 18.9336 75.7969 19.1699 75.9961 19.4863C76.1992 19.7988 76.3008 20.1914 76.3008 20.6641V23.6172C76.3008 23.8281 76.3184 24.0527 76.3535 24.291C76.3926 24.5293 76.4492 24.7344 76.5234 24.9062V25H75.3926C75.3379 24.875 75.2949 24.709 75.2637 24.502C75.2324 24.291 75.2168 24.0957 75.2168 23.916ZM75.4043 21.1562L75.416 21.918H74.3203C74.0117 21.918 73.7363 21.9434 73.4941 21.9941C73.252 22.041 73.0488 22.1133 72.8848 22.2109C72.7207 22.3086 72.5957 22.4316 72.5098 22.5801C72.4238 22.7246 72.3809 22.8945 72.3809 23.0898C72.3809 23.2891 72.4258 23.4707 72.5156 23.6348C72.6055 23.7988 72.7402 23.9297 72.9199 24.0273C73.1035 24.1211 73.3281 24.168 73.5938 24.168C73.9258 24.168 74.2188 24.0977 74.4727 23.957C74.7266 23.8164 74.9277 23.6445 75.0762 23.4414C75.2285 23.2383 75.3105 23.041 75.3223 22.8496L75.7852 23.3711C75.7578 23.5352 75.6836 23.7168 75.5625 23.916C75.4414 24.1152 75.2793 24.3066 75.0762 24.4902C74.877 24.6699 74.6387 24.8203 74.3613 24.9414C74.0879 25.0586 73.7793 25.1172 73.4355 25.1172C73.0059 25.1172 72.6289 25.0332 72.3047 24.8652C71.9844 24.6973 71.7344 24.4727 71.5547 24.1914C71.3789 23.9062 71.291 23.5879 71.291 23.2363C71.291 22.8965 71.3574 22.5977 71.4902 22.3398C71.623 22.0781 71.8145 21.8613 72.0645 21.6895C72.3145 21.5137 72.6152 21.3809 72.9668 21.291C73.3184 21.2012 73.7109 21.1562 74.1445 21.1562H75.4043ZM79.4531 25H78.3691V18.1094C78.3691 17.6289 78.4629 17.2227 78.6504 16.8906C78.8379 16.5586 79.1055 16.3066 79.4531 16.1348C79.8008 15.9629 80.2129 15.877 80.6895 15.877C80.9707 15.877 81.2461 15.9121 81.5156 15.9824C81.7852 16.0488 82.0625 16.1328 82.3477 16.2344L82.166 17.1484C81.9863 17.0781 81.7773 17.0117 81.5391 16.9492C81.3047 16.8828 81.0469 16.8496 80.7656 16.8496C80.3008 16.8496 79.9648 16.9551 79.7578 17.166C79.5547 17.373 79.4531 17.6875 79.4531 18.1094V25ZM80.748 18.6602V19.4922H77.3672V18.6602H80.748ZM82.8809 18.6602V25H81.7969V18.6602H82.8809ZM84.375 21.9004V21.7656C84.375 21.3086 84.4414 20.8848 84.5742 20.4941C84.707 20.0996 84.8984 19.7578 85.1484 19.4688C85.3984 19.1758 85.7012 18.9492 86.0566 18.7891C86.4121 18.625 86.8105 18.543 87.252 18.543C87.6973 18.543 88.0977 18.625 88.4531 18.7891C88.8125 18.9492 89.1172 19.1758 89.3672 19.4688C89.6211 19.7578 89.8145 20.0996 89.9473 20.4941C90.0801 20.8848 90.1465 21.3086 90.1465 21.7656V21.9004C90.1465 22.3574 90.0801 22.7812 89.9473 23.1719C89.8145 23.5625 89.6211 23.9043 89.3672 24.1973C89.1172 24.4863 88.8145 24.7129 88.459 24.877C88.1074 25.0371 87.709 25.1172 87.2637 25.1172C86.8184 25.1172 86.418 25.0371 86.0625 24.877C85.707 24.7129 85.4023 24.4863 85.1484 24.1973C84.8984 23.9043 84.707 23.5625 84.5742 23.1719C84.4414 22.7812 84.375 22.3574 84.375 21.9004ZM85.459 21.7656V21.9004C85.459 22.2168 85.4961 22.5156 85.5703 22.7969C85.6445 23.0742 85.7559 23.3203 85.9043 23.5352C86.0566 23.75 86.2461 23.9199 86.4727 24.0449C86.6992 24.166 86.9629 24.2266 87.2637 24.2266C87.5605 24.2266 87.8203 24.166 88.043 24.0449C88.2695 23.9199 88.457 23.75 88.6055 23.5352C88.7539 23.3203 88.8652 23.0742 88.9395 22.7969C89.0176 22.5156 89.0566 22.2168 89.0566 21.9004V21.7656C89.0566 21.4531 89.0176 21.1582 88.9395 20.8809C88.8652 20.5996 88.752 20.3516 88.5996 20.1367C88.4512 19.918 88.2637 19.7461 88.0371 19.6211C87.8145 19.4961 87.5527 19.4336 87.252 19.4336C86.9551 19.4336 86.6934 19.4961 86.4668 19.6211C86.2441 19.7461 86.0566 19.918 85.9043 20.1367C85.7559 20.3516 85.6445 20.5996 85.5703 20.8809C85.4961 21.1582 85.459 21.4531 85.459 21.7656ZM98.4785 23.7695V16H99.5684V25H98.5723L98.4785 23.7695ZM94.2129 21.9004V21.7773C94.2129 21.293 94.2715 20.8535 94.3887 20.459C94.5098 20.0605 94.6797 19.7188 94.8984 19.4336C95.1211 19.1484 95.3848 18.9297 95.6895 18.7773C95.998 18.6211 96.3418 18.543 96.7207 18.543C97.1191 18.543 97.4668 18.6133 97.7637 18.7539C98.0645 18.8906 98.3184 19.0918 98.5254 19.3574C98.7363 19.6191 98.9023 19.9355 99.0234 20.3066C99.1445 20.6777 99.2285 21.0977 99.2754 21.5664V22.1055C99.2324 22.5703 99.1484 22.9883 99.0234 23.3594C98.9023 23.7305 98.7363 24.0469 98.5254 24.3086C98.3184 24.5703 98.0645 24.7715 97.7637 24.9121C97.4629 25.0488 97.1113 25.1172 96.709 25.1172C96.3379 25.1172 95.998 25.0371 95.6895 24.877C95.3848 24.7168 95.1211 24.4922 94.8984 24.2031C94.6797 23.9141 94.5098 23.5742 94.3887 23.1836C94.2715 22.7891 94.2129 22.3613 94.2129 21.9004ZM95.3027 21.7773V21.9004C95.3027 22.2168 95.334 22.5137 95.3965 22.791C95.4629 23.0684 95.5645 23.3125 95.7012 23.5234C95.8379 23.7344 96.0117 23.9004 96.2227 24.0215C96.4336 24.1387 96.6855 24.1973 96.9785 24.1973C97.3379 24.1973 97.6328 24.1211 97.8633 23.9688C98.0977 23.8164 98.2852 23.6152 98.4258 23.3652C98.5664 23.1152 98.6758 22.8438 98.7539 22.5508V21.1387C98.707 20.9238 98.6387 20.7168 98.5488 20.5176C98.4629 20.3145 98.3496 20.1348 98.209 19.9785C98.0723 19.8184 97.9023 19.6914 97.6992 19.5977C97.5 19.5039 97.2637 19.457 96.9902 19.457C96.6934 19.457 96.4375 19.5195 96.2227 19.6445C96.0117 19.7656 95.8379 19.9336 95.7012 20.1484C95.5645 20.3594 95.4629 20.6055 95.3965 20.8867C95.334 21.1641 95.3027 21.4609 95.3027 21.7773ZM100.969 21.9004V21.7656C100.969 21.3086 101.035 20.8848 101.168 20.4941C101.301 20.0996 101.492 19.7578 101.742 19.4688C101.992 19.1758 102.295 18.9492 102.65 18.7891C103.006 18.625 103.404 18.543 103.846 18.543C104.291 18.543 104.691 18.625 105.047 18.7891C105.406 18.9492 105.711 19.1758 105.961 19.4688C106.215 19.7578 106.408 20.0996 106.541 20.4941C106.674 20.8848 106.74 21.3086 106.74 21.7656V21.9004C106.74 22.3574 106.674 22.7812 106.541 23.1719C106.408 23.5625 106.215 23.9043 105.961 24.1973C105.711 24.4863 105.408 24.7129 105.053 24.877C104.701 25.0371 104.303 25.1172 103.857 25.1172C103.412 25.1172 103.012 25.0371 102.656 24.877C102.301 24.7129 101.996 24.4863 101.742 24.1973C101.492 23.9043 101.301 23.5625 101.168 23.1719C101.035 22.7812 100.969 22.3574 100.969 21.9004ZM102.053 21.7656V21.9004C102.053 22.2168 102.09 22.5156 102.164 22.7969C102.238 23.0742 102.35 23.3203 102.498 23.5352C102.65 23.75 102.84 23.9199 103.066 24.0449C103.293 24.166 103.557 24.2266 103.857 24.2266C104.154 24.2266 104.414 24.166 104.637 24.0449C104.863 23.9199 105.051 23.75 105.199 23.5352C105.348 23.3203 105.459 23.0742 105.533 22.7969C105.611 22.5156 105.65 22.2168 105.65 21.9004V21.7656C105.65 21.4531 105.611 21.1582 105.533 20.8809C105.459 20.5996 105.346 20.3516 105.193 20.1367C105.045 19.918 104.857 19.7461 104.631 19.6211C104.408 19.4961 104.146 19.4336 103.846 19.4336C103.549 19.4336 103.287 19.4961 103.061 19.6211C102.838 19.7461 102.65 19.918 102.498 20.1367C102.35 20.3516 102.238 20.5996 102.164 20.8809C102.09 21.1582 102.053 21.4531 102.053 21.7656ZM113.613 24.2266C113.871 24.2266 114.109 24.1738 114.328 24.0684C114.547 23.9629 114.727 23.8184 114.867 23.6348C115.008 23.4473 115.088 23.2344 115.107 22.9961H116.139C116.119 23.3711 115.992 23.7207 115.758 24.0449C115.527 24.3652 115.225 24.625 114.85 24.8242C114.475 25.0195 114.062 25.1172 113.613 25.1172C113.137 25.1172 112.721 25.0332 112.365 24.8652C112.014 24.6973 111.721 24.4668 111.486 24.1738C111.256 23.8809 111.082 23.5449 110.965 23.166C110.852 22.7832 110.795 22.3789 110.795 21.9531V21.707C110.795 21.2812 110.852 20.8789 110.965 20.5C111.082 20.1172 111.256 19.7793 111.486 19.4863C111.721 19.1934 112.014 18.9629 112.365 18.7949C112.721 18.627 113.137 18.543 113.613 18.543C114.109 18.543 114.543 18.6445 114.914 18.8477C115.285 19.0469 115.576 19.3203 115.787 19.668C116.002 20.0117 116.119 20.4023 116.139 20.8398H115.107C115.088 20.5781 115.014 20.3418 114.885 20.1309C114.76 19.9199 114.588 19.752 114.369 19.627C114.154 19.498 113.902 19.4336 113.613 19.4336C113.281 19.4336 113.002 19.5 112.775 19.6328C112.553 19.7617 112.375 19.9375 112.242 20.1602C112.113 20.3789 112.02 20.623 111.961 20.8926C111.906 21.1582 111.879 21.4297 111.879 21.707V21.9531C111.879 22.2305 111.906 22.5039 111.961 22.7734C112.016 23.043 112.107 23.2871 112.236 23.5059C112.369 23.7246 112.547 23.9004 112.77 24.0332C112.996 24.1621 113.277 24.2266 113.613 24.2266ZM121.096 23.916V20.6523C121.096 20.4023 121.045 20.1855 120.943 20.002C120.846 19.8145 120.697 19.6699 120.498 19.5684C120.299 19.4668 120.053 19.416 119.76 19.416C119.486 19.416 119.246 19.4629 119.039 19.5566C118.836 19.6504 118.676 19.7734 118.559 19.9258C118.445 20.0781 118.389 20.2422 118.389 20.418H117.305C117.305 20.1914 117.363 19.9668 117.48 19.7441C117.598 19.5215 117.766 19.3203 117.984 19.1406C118.207 18.957 118.473 18.8125 118.781 18.707C119.094 18.5977 119.441 18.543 119.824 18.543C120.285 18.543 120.691 18.6211 121.043 18.7773C121.398 18.9336 121.676 19.1699 121.875 19.4863C122.078 19.7988 122.18 20.1914 122.18 20.6641V23.6172C122.18 23.8281 122.197 24.0527 122.232 24.291C122.271 24.5293 122.328 24.7344 122.402 24.9062V25H121.271C121.217 24.875 121.174 24.709 121.143 24.502C121.111 24.291 121.096 24.0957 121.096 23.916ZM121.283 21.1562L121.295 21.918H120.199C119.891 21.918 119.615 21.9434 119.373 21.9941C119.131 22.041 118.928 22.1133 118.764 22.2109C118.6 22.3086 118.475 22.4316 118.389 22.5801C118.303 22.7246 118.26 22.8945 118.26 23.0898C118.26 23.2891 118.305 23.4707 118.395 23.6348C118.484 23.7988 118.619 23.9297 118.799 24.0273C118.982 24.1211 119.207 24.168 119.473 24.168C119.805 24.168 120.098 24.0977 120.352 23.957C120.605 23.8164 120.807 23.6445 120.955 23.4414C121.107 23.2383 121.189 23.041 121.201 22.8496L121.664 23.3711C121.637 23.5352 121.562 23.7168 121.441 23.916C121.32 24.1152 121.158 24.3066 120.955 24.4902C120.756 24.6699 120.518 24.8203 120.24 24.9414C119.967 25.0586 119.658 25.1172 119.314 25.1172C118.885 25.1172 118.508 25.0332 118.184 24.8652C117.863 24.6973 117.613 24.4727 117.434 24.1914C117.258 23.9062 117.17 23.5879 117.17 23.2363C117.17 22.8965 117.236 22.5977 117.369 22.3398C117.502 22.0781 117.693 21.8613 117.943 21.6895C118.193 21.5137 118.494 21.3809 118.846 21.291C119.197 21.2012 119.59 21.1562 120.023 21.1562H121.283ZM124.969 19.8789V27.4375H123.879V18.6602H124.875L124.969 19.8789ZM129.24 21.7773V21.9004C129.24 22.3613 129.186 22.7891 129.076 23.1836C128.967 23.5742 128.807 23.9141 128.596 24.2031C128.389 24.4922 128.133 24.7168 127.828 24.877C127.523 25.0371 127.174 25.1172 126.779 25.1172C126.377 25.1172 126.021 25.0508 125.713 24.918C125.404 24.7852 125.143 24.5918 124.928 24.3379C124.713 24.084 124.541 23.7793 124.412 23.4238C124.287 23.0684 124.201 22.668 124.154 22.2227V21.5664C124.201 21.0977 124.289 20.6777 124.418 20.3066C124.547 19.9355 124.717 19.6191 124.928 19.3574C125.143 19.0918 125.402 18.8906 125.707 18.7539C126.012 18.6133 126.363 18.543 126.762 18.543C127.16 18.543 127.514 18.6211 127.822 18.7773C128.131 18.9297 128.391 19.1484 128.602 19.4336C128.812 19.7188 128.971 20.0605 129.076 20.459C129.186 20.8535 129.24 21.293 129.24 21.7773ZM128.15 21.9004V21.7773C128.15 21.4609 128.117 21.1641 128.051 20.8867C127.984 20.6055 127.881 20.3594 127.74 20.1484C127.604 19.9336 127.428 19.7656 127.213 19.6445C126.998 19.5195 126.742 19.457 126.445 19.457C126.172 19.457 125.934 19.5039 125.73 19.5977C125.531 19.6914 125.361 19.8184 125.221 19.9785C125.08 20.1348 124.965 20.3145 124.875 20.5176C124.789 20.7168 124.725 20.9238 124.682 21.1387V22.6562C124.76 22.9297 124.869 23.1875 125.01 23.4297C125.15 23.668 125.338 23.8613 125.572 24.0098C125.807 24.1543 126.102 24.2266 126.457 24.2266C126.75 24.2266 127.002 24.166 127.213 24.0449C127.428 23.9199 127.604 23.75 127.74 23.5352C127.881 23.3203 127.984 23.0742 128.051 22.7969C128.117 22.5156 128.15 22.2168 128.15 21.9004ZM133.277 18.6602V19.4922H129.85V18.6602H133.277ZM131.01 17.1191H132.094V23.4297C132.094 23.6445 132.127 23.8066 132.193 23.916C132.26 24.0254 132.346 24.0977 132.451 24.1328C132.557 24.168 132.67 24.1855 132.791 24.1855C132.881 24.1855 132.975 24.1777 133.072 24.1621C133.174 24.1426 133.25 24.127 133.301 24.1152L133.307 25C133.221 25.0273 133.107 25.0527 132.967 25.0762C132.83 25.1035 132.664 25.1172 132.469 25.1172C132.203 25.1172 131.959 25.0645 131.736 24.959C131.514 24.8535 131.336 24.6777 131.203 24.4316C131.074 24.1816 131.01 23.8457 131.01 23.4238V17.1191ZM137.086 24.2266C137.344 24.2266 137.582 24.1738 137.801 24.0684C138.02 23.9629 138.199 23.8184 138.34 23.6348C138.48 23.4473 138.561 23.2344 138.58 22.9961H139.611C139.592 23.3711 139.465 23.7207 139.23 24.0449C139 24.3652 138.697 24.625 138.322 24.8242C137.947 25.0195 137.535 25.1172 137.086 25.1172C136.609 25.1172 136.193 25.0332 135.838 24.8652C135.486 24.6973 135.193 24.4668 134.959 24.1738C134.729 23.8809 134.555 23.5449 134.438 23.166C134.324 22.7832 134.268 22.3789 134.268 21.9531V21.707C134.268 21.2812 134.324 20.8789 134.438 20.5C134.555 20.1172 134.729 19.7793 134.959 19.4863C135.193 19.1934 135.486 18.9629 135.838 18.7949C136.193 18.627 136.609 18.543 137.086 18.543C137.582 18.543 138.016 18.6445 138.387 18.8477C138.758 19.0469 139.049 19.3203 139.26 19.668C139.475 20.0117 139.592 20.4023 139.611 20.8398H138.58C138.561 20.5781 138.486 20.3418 138.357 20.1309C138.232 19.9199 138.061 19.752 137.842 19.627C137.627 19.498 137.375 19.4336 137.086 19.4336C136.754 19.4336 136.475 19.5 136.248 19.6328C136.025 19.7617 135.848 19.9375 135.715 20.1602C135.586 20.3789 135.492 20.623 135.434 20.8926C135.379 21.1582 135.352 21.4297 135.352 21.707V21.9531C135.352 22.2305 135.379 22.5039 135.434 22.7734C135.488 23.043 135.58 23.2871 135.709 23.5059C135.842 23.7246 136.02 23.9004 136.242 24.0332C136.469 24.1621 136.75 24.2266 137.086 24.2266ZM141.914 16V25H140.83V16H141.914ZM141.656 21.5898L141.205 21.5723C141.209 21.1387 141.273 20.7383 141.398 20.3711C141.523 20 141.699 19.6777 141.926 19.4043C142.152 19.1309 142.422 18.9199 142.734 18.7715C143.051 18.6191 143.4 18.543 143.783 18.543C144.096 18.543 144.377 18.5859 144.627 18.6719C144.877 18.7539 145.09 18.8867 145.266 19.0703C145.445 19.2539 145.582 19.4922 145.676 19.7852C145.77 20.0742 145.816 20.4277 145.816 20.8457V25H144.727V20.834C144.727 20.502 144.678 20.2363 144.58 20.0371C144.482 19.834 144.34 19.6875 144.152 19.5977C143.965 19.5039 143.734 19.457 143.461 19.457C143.191 19.457 142.945 19.5137 142.723 19.627C142.504 19.7402 142.314 19.8965 142.154 20.0957C141.998 20.2949 141.875 20.5234 141.785 20.7812C141.699 21.0352 141.656 21.3047 141.656 21.5898ZM151.178 23.916V20.6523C151.178 20.4023 151.127 20.1855 151.025 20.002C150.928 19.8145 150.779 19.6699 150.58 19.5684C150.381 19.4668 150.135 19.416 149.842 19.416C149.568 19.416 149.328 19.4629 149.121 19.5566C148.918 19.6504 148.758 19.7734 148.641 19.9258C148.527 20.0781 148.471 20.2422 148.471 20.418H147.387C147.387 20.1914 147.445 19.9668 147.562 19.7441C147.68 19.5215 147.848 19.3203 148.066 19.1406C148.289 18.957 148.555 18.8125 148.863 18.707C149.176 18.5977 149.523 18.543 149.906 18.543C150.367 18.543 150.773 18.6211 151.125 18.7773C151.48 18.9336 151.758 19.1699 151.957 19.4863C152.16 19.7988 152.262 20.1914 152.262 20.6641V23.6172C152.262 23.8281 152.279 24.0527 152.314 24.291C152.354 24.5293 152.41 24.7344 152.484 24.9062V25H151.354C151.299 24.875 151.256 24.709 151.225 24.502C151.193 24.291 151.178 24.0957 151.178 23.916ZM151.365 21.1562L151.377 21.918H150.281C149.973 21.918 149.697 21.9434 149.455 21.9941C149.213 22.041 149.01 22.1133 148.846 22.2109C148.682 22.3086 148.557 22.4316 148.471 22.5801C148.385 22.7246 148.342 22.8945 148.342 23.0898C148.342 23.2891 148.387 23.4707 148.477 23.6348C148.566 23.7988 148.701 23.9297 148.881 24.0273C149.064 24.1211 149.289 24.168 149.555 24.168C149.887 24.168 150.18 24.0977 150.434 23.957C150.688 23.8164 150.889 23.6445 151.037 23.4414C151.189 23.2383 151.271 23.041 151.283 22.8496L151.746 23.3711C151.719 23.5352 151.645 23.7168 151.523 23.916C151.402 24.1152 151.24 24.3066 151.037 24.4902C150.838 24.6699 150.6 24.8203 150.322 24.9414C150.049 25.0586 149.74 25.1172 149.396 25.1172C148.967 25.1172 148.59 25.0332 148.266 24.8652C147.945 24.6973 147.695 24.4727 147.516 24.1914C147.34 23.9062 147.252 23.5879 147.252 23.2363C147.252 22.8965 147.318 22.5977 147.451 22.3398C147.584 22.0781 147.775 21.8613 148.025 21.6895C148.275 21.5137 148.576 21.3809 148.928 21.291C149.279 21.2012 149.672 21.1562 150.105 21.1562H151.365Z" fill="black"/>
<path d="M205 14L185 2.45299V25.547L205 14ZM156 16H187V12H156V16Z" fill="black"/>
</svg>
